<?xml version="1.0" encoding="UTF-8"?>
<svg width="128px" height="21px" viewBox="0 0 128 21" version="1.1" xmlns="http://www.w3.org/2000/svg" xmlns:xlink="http://www.w3.org/1999/xlink">
    <title>编组</title>
    <defs>
        <filter id="filter-1">
            <feColorMatrix in="SourceGraphic" type="matrix" values="0 0 0 0 1.000000 0 0 0 0 1.000000 0 0 0 0 1.000000 0 0 0 1.000000 0"></feColorMatrix>
        </filter>
        <polygon id="path-2" points="0 21 128 21 128 0 0 0"></polygon>
    </defs>
    <g id="主界面" stroke="none" stroke-width="1" fill="none" fill-rule="evenodd">
        <g id="编组" transform="translate(-18.000000, -19.000000)" filter="url(#filter-1)">
            <g transform="translate(18.000000, 19.000000)">
                <path d="M31.9103934,0 C9.0792209,0.633504225 0.222826362,7.25576763 0.00403536014,10.1630706 C-0.110001162,11.6741291 2.21713949,13.010987 3.91177525,13.7645367 C4.00724768,15.2518406 6.49881309,16.6757988 7.7678009,17.1825642 C7.9216176,18.6276376 10.5325236,20.3498484 13.5863155,20.9965023 C13.7228942,21.0255357 13.7931725,20.8658518 13.6658759,20.8117441 C11.4129916,19.8140495 10.7857907,18.7965595 10.7857907,17.8331772 C10.7857907,15.8417472 17.6041139,14.3597222 22.8922261,14.0575105 L25.5999305,10.9548916 C25.6768389,10.8823081 25.6237986,10.7740925 25.5482163,10.7780516 C14.4508715,11.1356908 8.18681881,14.002083 7.77443093,16.7378247 C7.13927402,16.3801856 6.67914991,15.7955577 6.67914991,15.1607811 C6.67914991,12.9991097 12.819884,9.23532026 25.8120915,8.95686319 L28.6351584,5.75658644 C28.7067627,5.68136344 28.6537225,5.57446759 28.5794662,5.57446759 C13.9443372,5.62989507 4.43554764,9.90704845 3.92636131,13.3527897 C3.65055205,13.187827 2.85760042,12.5398535 2.85760042,11.6741291 C2.85760042,8.56755117 13.248184,3.87865084 29.0143961,3.5447663 L31.9700637,0.178207119 C32.035038,0.105623523 31.9846497,-0.00259202119 31.9103934,0" id="Fill-1" fill="#0075C1"></path>
                <path d="M45,11.0512981 L42.2647769,11.0512981 C42.2647769,11.0512981 42.2750597,14.7538208 42.2647769,14.7456233 C41.7750589,14.9273338 41.2223587,14.9191364 40.6837974,14.9191364 C39.4537182,14.9191364 36.7840479,13.8357045 36.7634823,10.8231353 C36.8341765,7.38429782 39.732639,6.6656532 41.0912531,6.71073927 C43.0719762,6.78041774 43.9807181,7.37473411 43.9807181,7.37473411 C43.9704353,7.35697293 44.6863748,5.79125671 44.6863748,5.79125671 C44.1118237,5.5426002 42.4498672,4.98790492 40.5514064,5.00020113 C39.0963911,5.01249733 36.9858477,5.55353016 35.7930437,6.60963717 C34.5963836,7.66437795 33.9678478,9.06341234 34.0012669,10.8012754 C34.0244032,12.028163 34.5976689,13.6253028 35.794329,14.5748427 C36.9909891,15.5257489 38.569398,15.9998358 40.5269848,15.9998358 C42.2223604,16.006667 43.7107948,15.8003641 44.9922879,15.380927 C44.9781491,15.3699971 45,11.0512981 45,11.0512981" id="Fill-3" fill="#5E5C5C"></path>
                <path d="M47.7833644,14.5661106 C46.59042,13.6129233 46,12.3488546 46,10.7752739 C46,9.0373506 46.59042,7.6376992 47.7833644,6.58453685 C48.9736189,5.52726594 50.5458307,5 52.5,5 C54.458204,5 56.0344507,5.47796315 57.2220153,6.43525896 C58.4082351,7.39529382 59,8.66073207 59,10.2329432 C59,11.966758 58.4082351,13.3623008 57.2220153,14.4195717 C56.0344507,15.4727341 54.458204,16 52.5,16 C50.5458307,16 48.9736189,15.5220369 47.7833644,14.5661106 M55.1952204,13.7293327 C55.8569212,12.8706424 56.1877716,11.7092878 56.1877716,10.2466384 C56.1877716,8.94422311 55.8569212,7.9061255 55.1952204,7.13508466 C54.5308297,6.36815239 53.6324229,5.98194721 52.5,5.98194721 C51.3729568,5.98194721 50.47455,6.41334661 49.8101593,7.27203685 C49.1457687,8.13209661 48.8122284,9.29482072 48.8122284,10.7629482 C48.8122284,12.0681026 49.1457687,13.1007221 49.8101593,13.8676544 C50.47455,14.6359562 51.3729568,15.0180528 52.5,15.0180528 C53.6324229,15.0180528 54.5308297,14.590762 55.1952204,13.7293327" id="Fill-5" fill="#5E5C5C"></path>
                <polygon id="Fill-7" fill="#5E5C5C" points="61 16 61 6 63.8043019 6 63.8043019 14.9574305 68 14.9574305 68 16"></polygon>
                <path d="M69,5.00855318 C68.9986909,4.99755623 74.2125939,5.00030547 74.3540056,5.00030547 C76.1687895,5.00030547 77.5645757,5.4566787 78.5387454,6.36392669 C79.5116058,7.27392391 80,8.57431269 80,10.2623438 C80,12.1043321 79.4487561,13.5188142 78.3501964,14.5099139 C77.2516368,15.5023882 75.6764672,16 73.6325439,16 L69,16 L69,5.00855318 L69,5.00855318 Z M71.6737295,14.8301999 C71.6737295,14.8301999 72.714677,14.9030547 73.3065113,14.8989309 C74.5910012,14.8989309 75.5651709,14.4961677 76.2290204,13.6906415 C76.8941793,12.8878645 77.2280681,11.712566 77.2280681,10.1674951 C77.2280681,8.83823938 76.8876325,7.82789503 76.213308,7.13921133 C75.5376742,6.44777839 74.5491014,6.09862538 73.2462804,6.09862538 C72.6845615,6.09862538 71.6737295,6.16323244 71.6737295,6.16323244 L71.6737295,14.8301999 Z" id="Fill-9" fill="#5E5C5C"></path>
                <path d="M117.001158,5.00983227 C116.998553,4.99752372 122.212095,5.00025896 122.351453,5.00025896 C124.165708,5.00025896 125.560588,5.45704293 126.533488,6.36514041 C127.510294,7.27597313 128,8.57384137 128,10.2655832 C128,12.1050277 127.446476,13.5191433 126.348546,14.512033 C125.246708,15.5035551 123.676003,16 121.632523,16 C121.46842,16 117.001158,15.9917943 117.001158,15.9917943 C117.001158,15.9917943 116.998553,5.00983227 117.001158,5.00983227 L117.001158,5.00983227 Z M119.672398,14.8306877 C119.672398,14.8306877 120.714325,14.904539 121.304316,14.9018779 C122.591096,14.9018779 123.563996,14.4983569 124.228224,13.6941983 C124.893755,12.888672 125.224567,11.7152569 125.224567,10.1657472 C125.224567,8.83915901 124.888545,7.83122551 124.212595,7.13921146 C123.535343,6.44719742 122.545512,6.10119039 121.24701,6.10119039 C120.681765,6.10119039 119.672398,6.16273314 119.672398,6.16273314 L119.672398,14.8306877 Z" id="Fill-11" fill="#5E5C5C"></path>
                <path d="M84.6607072,16 C84.6607072,16 81.131029,6.26572529 81,6.00641849 L84.0055622,6.00641849 C83.992054,5.98459564 86.4329758,12.6444159 86.4329758,12.6444159 L89.234565,6 L90.9663091,6 L93.6652364,12.5160462 L96.4019865,6.00641849 L98,6.00641849 L93.7908621,16 L92.2725467,16 L89.3169646,8.88189987 L86.2816845,16 L84.6607072,16 Z" id="Fill-13" fill="#5E5C5C"></path>
                <mask id="mask-3" fill="white">
                    <use xlink:href="#path-2"></use>
                </mask>
                <g id="Clip-16"></g>
                <polygon id="Fill-15" fill="#5E5C5C" mask="url(#mask-3)" points="99 16 102 16 102 6 99 6"></polygon>
                <polygon id="Fill-17" fill="#5E5C5C" mask="url(#mask-3)" points="105.451051 16 104 16 104 6 105.60583 6 112.548949 12.8794964 112.548949 6 114 6 114 16 112.46511 16 105.451051 9.03186023"></polygon>
            </g>
        </g>
    </g>
</svg>