<?xml version="1.0" encoding="UTF-8"?>
<svg width="208px" height="209px" viewBox="0 0 208 209" version="1.1" xmlns="http://www.w3.org/2000/svg" xmlns:xlink="http://www.w3.org/1999/xlink">
    <title>编组</title>
    <defs>
        <polygon id="path-1" points="0.38015 0.2255 2.86915 0.2255 2.86915 7.99785 0.38015 7.99785"></polygon>
    </defs>
    <g id="页面-1" stroke="none" stroke-width="1" fill="none" fill-rule="evenodd">
        <g id="EOX计划-空数据" transform="translate(-657.000000, -163.000000)">
            <g id="编组" transform="translate(660.000000, 163.000000)">
                <path d="M164.051023,81 C164.018152,80.6821489 164,80.3602285 164,80.034239 C164,74.4924165 168.869277,70 174.876272,70 C178.984126,70 182.559181,72.1019771 184.409752,75.2031732 C185.4101,74.7221012 186.546837,74.4490115 187.75275,74.4490115 C191.707044,74.4490115 194.91954,77.3698056 195,81 L164.051023,81 Z" id="Fill-1" fill="#ADDBFC"></path>
                <path d="M165.056243,81 C165.020323,80.6240659 165,80.2439077 165,79.8590563 C165,73.3095419 170.34071,68 176.928689,68 C181.434735,68 185.355667,70.4841691 187.384665,74.1491751 C188.48211,73.5812845 189.728433,73.2583848 191.051322,73.2583848 C195.388168,73.2583848 198.911618,76.7098451 199,81" id="Stroke-3" stroke="#558DE0" stroke-width="2" stroke-linecap="round" stroke-linejoin="round"></path>
                <path d="M195.347596,172.800695 C195.347596,172.800695 198.621512,174.527222 195.952692,179.573436 C193.283401,184.61917 189.822686,188.779974 186.443372,191 C186.443372,191 184.712779,190.137218 188.08974,179.376999 C191.467172,168.616781 195.347596,172.800695 195.347596,172.800695" id="Fill-5" fill="#AADAFF"></path>
                <path d="M195.347596,172.800695 C195.347596,172.800695 198.621512,174.527222 195.952692,179.573436 C193.283401,184.61917 189.822686,188.779974 186.443372,191 C186.443372,191 184.712779,190.137218 188.08974,179.376999 C191.467172,168.616781 195.347596,172.800695 195.347596,172.800695 Z" id="Stroke-7" stroke="#72A2D8" stroke-width="0.25"></path>
                <path d="M196,174 C196,174 193.569753,182.455238 187,192" id="Stroke-9" stroke="#72A2D8"></path>
                <polyline id="Stroke-11" stroke="#72A2D8" points="197 176.685702 193.82412 177 192 172"></polyline>
                <path d="M195,180.723447 L191.648021,181 C191.648021,181 190.91473,177.359335 189,176" id="Stroke-13" stroke="#72A2D8"></path>
                <path d="M194,183.440728 L190.98059,184 C190.98059,184 189.300458,179.928817 188,180.000947" id="Stroke-15" stroke="#72A2D8"></path>
                <path d="M191,187.515128 C191,187.515128 189.46595,187.546637 188.882915,188 C188.882915,188 188.29597,186.064273 187,185" id="Stroke-17" stroke="#72A2D8"></path>
                <path d="M186.409849,192.054693 C186.409849,192.054693 191.109483,178.578901 184.350034,178.040454 C184.350034,178.040454 180.95692,177.174301 180.002544,183.457693 C180.002544,183.457693 179.934338,186.283027 180.504236,188.111124 C181.074639,189.938718 184.333866,193 184.333866,193 L186.409849,192.054693 Z" id="Fill-19" fill="#AADAFF"></path>
                <path d="M186.409849,192.054693 C186.409849,192.054693 191.109483,178.578901 184.350034,178.040454 C184.350034,178.040454 180.95692,177.174301 180.002544,183.457693 C180.002544,183.457693 179.934338,186.283027 180.504236,188.111124 C181.074639,189.938718 184.333866,193 184.333866,193 L186.409849,192.054693 Z" id="Stroke-21" stroke="#72A2D8" stroke-width="0.25"></path>
                <path d="M184.674684,178 C184.674684,178 182.95872,180.765299 185,192" id="Stroke-23" stroke="#72A2D8"></path>
                <path d="M187,180.463177 C187,180.463177 184.487115,180.686155 183.250119,182 C183.250119,182 181.27415,181.030138 181,180" id="Stroke-25" stroke="#72A2D8"></path>
                <path d="M188,184 C188,184 184.29028,184.93123 183.760753,186 C183.760753,186 181.002968,185.118932 180,184.116505" id="Stroke-27" stroke="#72A2D8"></path>
                <path d="M188,188.113849 C188,188.113849 185.757411,188.371551 185.085968,189 C185.085968,189 182.810771,188.985534 181,188" id="Stroke-29" stroke="#72A2D8"></path>
                <path d="M196.972049,186.449369 C197.161472,185.548151 196.407168,182.837626 194.125362,184.562059 C194.125362,184.562059 192.612394,186.094671 192.110009,186.834975 C191.607624,187.57528 188.836028,190.657183 186.747522,190.198479 L186,191.336654 C186,191.336654 187.072594,191.919479 190.510806,191.998464 C193.948534,192.077449 196.415889,189.095627 196.972049,186.449369" id="Fill-31" fill="#AADAFF"></path>
                <path d="M196.972049,186.449369 C197.161472,185.548151 196.407168,182.837626 194.125362,184.562059 C194.125362,184.562059 192.612394,186.094671 192.110009,186.834975 C191.607624,187.57528 188.836028,190.657183 186.747522,190.198479 L186,191.336654 C186,191.336654 187.072594,191.919479 190.510806,191.998464 C193.948534,192.077449 196.415889,189.095627 196.972049,186.449369 Z" id="Stroke-33" stroke="#72A2D8" stroke-width="0.25"></path>
                <path d="M196,185 C196,185 194.032536,193.220256 186,191.844818" id="Stroke-35" stroke="#72A2D8" stroke-width="0.75"></path>
                <path d="M197,187.217391 C197,187.217391 196.070202,187.932235 195.426845,188 C195.426845,188 194.80698,185.990999 195.061216,185" id="Stroke-37" stroke="#72A2D8" stroke-width="0.75"></path>
                <path d="M195,189.639302 C195,189.639302 193.116389,190.287544 192.345041,189.845972 C192.345041,189.845972 191.750875,186.904038 192.121939,186" id="Stroke-39" stroke="#72A2D8" stroke-width="0.75"></path>
                <path d="M193,191 C193,191 190.801858,190.77322 190,190.27487 C190,190.27487 190.269571,188.707214 190.92979,188" id="Stroke-41" stroke="#72A2D8" stroke-width="0.75"></path>
                <path d="M22.8145191,166.034329 C22.8145191,166.034329 28.5525062,167.644385 24.6263128,172.475507 C24.6263128,172.475507 22.4120051,175.192506 18.9891944,176.803039 C15.5668641,178.413095 9.42636299,184.451879 10.5335169,190.490185 L10.4019073,192 L8.31872879,191.396169 C8.31872879,191.396169 7.21157492,178.312377 9.12423727,174.488435 C11.0368996,170.664015 13.150819,165.531216 22.8145191,166.034329" id="Fill-43" fill="#AADAFF"></path>
                <path d="M25,167 C25,167 7.38700396,172.529002 9.11998197,191" id="Stroke-45" stroke="#3B6BB2" stroke-width="2"></path>
                <path d="M12.9558306,186.369826 C14.5688965,184.836253 14.8119881,182.032249 14.8119881,181.908224 C14.8119881,180.121885 16.7493402,179 18.6020531,179 C20.454766,179 21,179.987957 21,181.774295 C21,183.267312 19.8435922,184.253383 18.523319,184.892843 C16.7985491,185.72848 14.1860517,187.005042 13.6521357,188.793267 C12.9169556,191.253963 12.9947056,192 12.9947056,192 L11.176931,191.552472 C11.176931,191.552472 10.1711022,189.017267 12.9558306,186.369826" id="Fill-47" fill="#AADAFF"></path>
                <path d="M20,179 C20,179 17.2303078,182.636642 15.1140691,184.199341 C12.9973551,185.7625 11.819238,189.318685 12.0226402,191" id="Stroke-49" stroke="#3B6BB2"></path>
                <path d="M3.73883188,182.578485 C5.28233454,184.678469 4.44419859,187.434298 8,192 L6.7741779,192 C6.7741779,192 1.15876362,189.535658 1.0071653,185.33248 C0.855084176,181.128844 3.16816558,181.802104 3.73883188,182.578485" id="Fill-51" fill="#AADAFF"></path>
                <path d="M2.00415233,182 C2.00415233,182 1.6698685,187.39298 7,192" id="Stroke-53" stroke="#3B6BB2"></path>
                <path d="M40.161896,178 C40.161896,178 42.8892927,178.07696 41.6995078,180.67696 C41.6995078,180.67696 41.0274516,182.139667 39.693722,183.24323 C38.3599924,184.346793 36.3263616,187.734917 37.5052917,190.310689 L37.6190316,191 L36.6269935,190.96342 C36.6269935,190.96342 34.6443332,185.238005 35.0563452,183.314014 C35.4683572,181.389549 35.8204316,178.857957 40.161896,178" id="Fill-55" fill="#AADAFF"></path>
                <path d="M42,179 C42,179 34.8115211,183.27365 37.6731039,191" id="Stroke-57" stroke="#3B6BB2"></path>
                <path d="M26.3130264,182.332595 C28.3876702,184.05729 28.2933016,187.004529 33,190.707591 L31.7942325,191 C31.7942325,191 25.6172409,189.883743 24.3547543,185.730021 C23.0922678,181.575827 25.5463421,181.694869 26.3130264,182.332595" id="Fill-59" fill="#AADAFF"></path>
                <path d="M26,182 C26,182 27.0195761,187.59276 33,191" id="Stroke-61" stroke="#3B6BB2"></path>
                <path d="M29.0132407,181.496714 C29.4069888,184.005411 31.7707811,185.414249 32.4991715,191 L33.2897099,190.194105 C33.2897099,190.194105 35.2801803,184.748509 32.5969567,181.658712 C29.913733,178.569371 28.8676495,180.56932 29.0132407,181.496714" id="Fill-63" fill="#AADAFF"></path>
                <path d="M30,180 C30,180 34.4130916,183.828394 33.9685346,191" id="Stroke-65" stroke="#3B6BB2"></path>
                <path d="M171.687913,29.610701 L165.812087,29.610701 L165.812087,23.3890464 C165.812087,22.6220139 165.224936,22 164.5,22 L164.5,22 C163.775544,22 163.187913,22.6220139 163.187913,23.3890464 L163.187913,29.610701 L157.312087,29.610701 C156.587631,29.610701 156,30.2327148 156,31.0002526 L156,31.0002526 C156,31.7672852 156.587631,32.389299 157.312087,32.389299 L163.187913,32.389299 L163.187913,38.6109536 C163.187913,39.3779861 163.775544,40 164.5,40 L164.5,40 C165.224936,40 165.812087,39.3779861 165.812087,38.6109536 L165.812087,32.389299 L171.687913,32.389299 C172.412369,32.389299 173,31.7672852 173,31.0002526 L173,31.0002526 C173,30.2327148 172.412369,29.610701 171.687913,29.610701" id="Fill-67" fill="#558DE0"></path>
                <path d="M18,61 C18.5520289,61 19,60.1043422 19,59.000193 L19,55.999807 C19,54.8952075 18.5520289,54 18,54 C17.4475693,54 17,54.8952075 17,55.999807 L17,59.000193 C17,60.1043422 17.4475693,61 18,61" id="Fill-69" fill="#8AD0FF"></path>
                <path d="M18,66 C17.4475693,66 17,66.8955302 17,67.9998034 L17,71.0001966 C17,72.1044698 17.4475693,73 18,73 C18.5520289,73 19,72.1044698 19,71.0001966 L19,67.9998034 C19,66.8955302 18.5520289,66 18,66" id="Fill-71" fill="#8AD0FF"></path>
                <path d="M26.0001973,62 L23.0002631,62 C21.8956058,62 21,62.4476837 21,63 C21,63.5523163 21.8956058,64 23.0002631,64 L26.0001973,64 C27.1048546,64 28,63.5523163 28,63 C28,62.4476837 27.1048546,62 26.0001973,62" id="Fill-73" fill="#8AD0FF"></path>
                <path d="M12.7142857,62 L9.28571429,62 C8.02339472,62 7,62.4476837 7,63 C7,63.5523163 8.02339472,64 9.28571429,64 L12.7142857,64 C13.9766053,64 15,63.5523163 15,63 C15,62.4476837 13.9766053,62 12.7142857,62" id="Fill-75" fill="#8AD0FF"></path>
                <g transform="translate(110.000000, 0.000000)">
                    <mask id="mask-2" fill="white">
                        <use xlink:href="#path-1"></use>
                    </mask>
                    <g id="Clip-78"></g>
                    <path d="M1.62465,0.22535 C0.93715,0.22535 0.38015,1.21935 0.38015,2.44585 L0.38015,5.77735 C0.38015,7.00335 0.93715,7.99785 1.62465,7.99785 C2.31165,7.99785 2.86915,7.00335 2.86915,5.77735 L2.86915,2.44585 C2.86915,1.21935 2.31165,0.22535 1.62465,0.22535" id="Fill-77" fill="#FFB900" mask="url(#mask-2)"></path>
                </g>
                <path d="M112,13 C111.447569,13 111,13.8955302 111,14.9998034 L111,18.0001966 C111,19.1044698 111.447569,20 112,20 C112.552029,20 113,19.1044698 113,18.0001966 L113,14.9998034 C113,13.8955302 112.552029,13 112,13" id="Fill-79" fill="#FFB900"></path>
                <path d="M119.000197,9 L116.000263,9 C114.895606,9 114,9.44768371 114,10 C114,10.5523163 114.895606,11 116.000263,11 L119.000197,11 C120.104855,11 121,10.5523163 121,10 C121,9.44768371 120.104855,9 119.000197,9" id="Fill-81" fill="#FFB900"></path>
                <path d="M110,10 C110,9.44768371 108.976605,9 107.714286,9 L104.285714,9 C103.023395,9 102,9.44768371 102,10 C102,10.5523163 103.023395,11 104.285714,11 L107.714286,11 C108.976605,11 110,10.5523163 110,10" id="Fill-83" fill="#FFB900"></path>
                <path d="M116.254723,8.0763882 L118.230541,5.70560177 C118.957919,4.83297522 119.214864,3.72633982 118.804764,3.23416637 C118.395087,2.74199292 117.472786,3.05098525 116.745408,3.9236118 L114.76959,6.29439823 C114.042212,7.16752802 113.785267,8.27366018 114.194945,8.76583363 C114.605044,9.25800708 115.527346,8.94901475 116.254723,8.0763882" id="Fill-85" fill="#FFB900"></path>
                <path d="M107.730622,12.7605076 L105.760476,14.7307251 C105.035174,15.4559219 104.784833,16.3818048 105.201496,16.798516 C105.618159,17.2152273 106.543648,16.9646892 107.269378,16.2394924 L109.239524,14.2692749 C109.964826,13.543652 110.215167,12.6181952 109.798504,12.201484 C109.381841,11.7847727 108.455924,12.0353108 107.730622,12.7605076" id="Fill-87" fill="#FFB900"></path>
                <path d="M116.267483,12.7616025 C115.54191,12.0361363 114.616548,11.7848171 114.200713,12.2007057 C113.784878,12.6161691 114.036005,13.5415 114.761577,14.2673915 L116.732517,16.2383975 C117.45809,16.9638637 118.383452,17.2151829 118.799287,16.7992943 C119.215122,16.3834057 118.963995,15.4580747 118.238423,14.7326085 L116.267483,12.7616025 Z" id="Fill-89" fill="#FFB900"></path>
                <path d="M107.66939,3.9466451 C106.791824,3.0689642 105.694498,2.74299624 105.218762,3.21881216 C104.743026,3.69462808 105.068993,4.79172921 105.94656,5.6694101 L108.330624,8.0533549 C109.208191,8.9310358 110.305517,9.25700376 110.781253,8.78118784 C111.256989,8.30537192 110.931022,7.20827079 110.052965,6.3305899 L107.66939,3.9466451 Z" id="Fill-91" fill="#FFB900"></path>
                <path d="M184,155 C184,158.313667 181.313761,161 178.000239,161 C174.686239,161 172,158.313667 172,155 C172,151.686333 174.686239,149 178.000239,149 C181.313761,149 184,151.686333 184,155 Z" id="Stroke-93" stroke="#FFB900" stroke-width="5"></path>
                <line x1="0" y1="191.5" x2="114" y2="191.5" id="Stroke-95" stroke="#BACDEF" stroke-width="6" stroke-linecap="round" stroke-linejoin="round"></line>
                <line x1="125" y1="191.5" x2="145" y2="191.5" id="Stroke-97" stroke="#BACDEF" stroke-width="6" stroke-linecap="round" stroke-linejoin="round"></line>
                <line x1="194" y1="205.5" x2="80" y2="205.5" id="Stroke-99" stroke="#BACDEF" stroke-width="6" stroke-linecap="round" stroke-linejoin="round"></line>
                <line x1="70" y1="205.5" x2="50" y2="205.5" id="Stroke-101" stroke="#BACDEF" stroke-width="6" stroke-linecap="round" stroke-linejoin="round"></line>
                <line x1="165" y1="191.5" x2="202" y2="191.5" id="Stroke-103" stroke="#BACDEF" stroke-width="6" stroke-linecap="round" stroke-linejoin="round"></line>
                <line x1="34" y1="158.5" x2="21" y2="158.5" id="Stroke-105" stroke="#558DE0" stroke-width="4" stroke-linecap="round" stroke-linejoin="round"></line>
                <line x1="135" y1="111" x2="137" y2="112" id="Stroke-107" stroke="#FFFFFF" stroke-width="5" stroke-linecap="round" stroke-linejoin="round"></line>
                <line x1="142" y1="114" x2="157" y2="118" id="Stroke-109" stroke="#FFFFFF" stroke-width="5" stroke-linecap="round" stroke-linejoin="round"></line>
                <path d="M128.177452,157 L56.8225481,157 C54.1590548,157 52,154.86918 52,152.240519 L52,60.7594813 C52,58.1308198 54.1590548,56 56.8225481,56 L128.177452,56 C130.840945,56 133,58.1308198 133,60.7594813 L133,152.240519 C133,154.86918 130.840945,157 128.177452,157" id="Fill-111" fill="#C8EEFF"></path>
                <path d="M85.0279062,51 L128.236894,51 C130.867558,51 133,53.1339947 133,55.7665728 L133,152.233427 C133,154.866005 130.867558,157 128.236894,157 L52.7631055,157 C50.1324424,157 48,154.866005 48,152.233427 L48,55.7665728 C48,53.1339947 50.1324424,51 52.7631055,51 L63.7334902,51" id="Stroke-113" stroke="#558DE0" stroke-width="2" stroke-linecap="round" stroke-linejoin="round"></path>
                <line x1="69" y1="50.5" x2="76" y2="50.5" id="Stroke-115" stroke="#558DE0" stroke-width="2" stroke-linecap="round" stroke-linejoin="round"></line>
                <line x1="67" y1="50.5" x2="69" y2="50.5" id="Stroke-117" stroke="#558DE0" stroke-width="2" stroke-linecap="round" stroke-linejoin="round"></line>
                <path d="M140.590449,119 L150.849494,129.735531 C150.849494,129.735531 152.644478,132.375634 155.465992,129.119655 C158.287025,125.863676 161.877474,123.575784 161.877474,123.575784 C161.877474,123.575784 163.929091,121.640104 166.579516,122.783802 C169.229461,123.927995 171.196014,124.016048 171.96543,123.047961 C171.96543,123.047961 173.162086,121.728156 173.931503,123.839942 C173.931503,123.839942 174.615375,126.30394 170.939382,126.567604 C167.263388,126.831763 168.460525,126.567604 168.460525,126.567604 C168.460525,126.567604 167.348932,127.711798 168.460525,128.063515 C169.571637,128.415726 173.861337,131.143883 173.981964,133.255669 C174.102591,135.367455 173.675351,138.887593 170.939382,139.855186 C168.203893,140.823273 162.21965,136.775312 160.253097,132.55174 L155.380448,137.391683 C155.380448,137.391683 153.072199,139.23931 150.080077,137.479241 C147.087956,135.719666 137,126.74371 137,126.74371 L140.590449,119 Z" id="Fill-119" fill="#B3DFFC"></path>
                <path d="M140.590449,119 L150.849494,129.735531 C150.849494,129.735531 152.644478,132.375634 155.465992,129.119655 C158.287025,125.863676 161.877474,123.575784 161.877474,123.575784 C161.877474,123.575784 163.929091,121.640104 166.579516,122.783802 C169.229461,123.927995 171.196014,124.016048 171.96543,123.047961 C171.96543,123.047961 173.162086,121.728156 173.931503,123.839942 C173.931503,123.839942 174.615375,126.30394 170.939382,126.567604 C167.263388,126.831763 168.460525,126.567604 168.460525,126.567604 C168.460525,126.567604 167.348932,127.711798 168.460525,128.063515 C169.571637,128.415726 173.861337,131.143883 173.981964,133.255669 C174.102591,135.367455 173.675351,138.887593 170.939382,139.855186 C168.203893,140.823273 162.21965,136.775312 160.253097,132.55174 L155.380448,137.391683 C155.380448,137.391683 153.072199,139.23931 150.080077,137.479241 C147.087956,135.719666 137,126.74371 137,126.74371 L140.590449,119 Z" id="Stroke-121" stroke="#558DE0" stroke-width="2" stroke-linecap="round" stroke-linejoin="round"></path>
                <path d="M64.4095507,119 L54.1505063,129.735531 C54.1505063,129.735531 52.3555219,132.375634 49.5340083,129.119655 C46.7129754,125.863676 43.1225261,123.575784 43.1225261,123.575784 C43.1225261,123.575784 41.0709094,121.640104 38.4204841,122.783802 C35.7705393,123.927995 33.8039861,124.016048 33.0345698,123.047961 C33.0345698,123.047961 31.8379136,121.728156 31.0684973,123.839942 C31.0684973,123.839942 30.384625,126.30394 34.0606184,126.567604 C37.7366118,126.831763 36.539475,126.567604 36.539475,126.567604 C36.539475,126.567604 37.6510677,127.711798 36.539475,128.063515 C35.4283629,128.415726 31.1386626,131.143883 31.0180359,133.255669 C30.8974091,135.367455 31.324649,138.887593 34.0606184,139.855186 C36.7961073,140.823273 42.7803497,136.775312 44.7469028,132.55174 L49.6195524,137.391683 C49.6195524,137.391683 51.9278014,139.23931 54.9199226,137.479241 C57.9125243,135.719666 68,126.74371 68,126.74371 L64.4095507,119 Z" id="Fill-123" fill="#B3DFFC"></path>
                <path d="M64.4095507,119 L54.1505063,129.735531 C54.1505063,129.735531 52.3555219,132.375634 49.5340083,129.119655 C46.7129754,125.863676 43.1225261,123.575784 43.1225261,123.575784 C43.1225261,123.575784 41.0709094,121.640104 38.4204841,122.783802 C35.7705393,123.927995 33.8039861,124.016048 33.0345698,123.047961 C33.0345698,123.047961 31.8379136,121.728156 31.0684973,123.839942 C31.0684973,123.839942 30.384625,126.30394 34.0606184,126.567604 C37.7366118,126.831763 36.539475,126.567604 36.539475,126.567604 C36.539475,126.567604 37.6510677,127.711798 36.539475,128.063515 C35.4283629,128.415726 31.1386626,131.143883 31.0180359,133.255669 C30.8974091,135.367455 31.324649,138.887593 34.0606184,139.855186 C36.7961073,140.823273 42.7803497,136.775312 44.7469028,132.55174 L49.6195524,137.391683 C49.6195524,137.391683 51.9278014,139.23931 54.9199226,137.479241 C57.9125243,135.719666 68,126.74371 68,126.74371 L64.4095507,119 Z" id="Stroke-125" stroke="#558DE0" stroke-width="2" stroke-linecap="round" stroke-linejoin="round"></path>
                <path d="M66.7610651,166 C64.1315288,166 62,163.854696 62,161.208166 L62,67.7918343 C62,65.1453042 64.1315288,63 66.7610651,63 L138.238935,63 C140.868471,63 143,65.1453042 143,67.7918343 L143,161.208166 C143,163.854696 140.868471,166 138.238935,166 L66.7610651,166 Z" id="Fill-127" fill="#B3DFFC"></path>
                <path d="M138.238935,166 L66.7610651,166 C64.1315288,166 62,163.854696 62,161.208166 L62,67.7918343 C62,65.1453042 64.1315288,63 66.7610651,63 L138.238935,63 C140.868471,63 143,65.1453042 143,67.7918343 L143,161.208166 C143,163.854696 140.868471,166 138.238935,166 Z" id="Stroke-129" stroke="#558DE0" stroke-width="2"></path>
                <line x1="137.5" y1="72" x2="137.5" y2="82" id="Stroke-131" stroke="#5C94D6" stroke-width="4" stroke-linecap="round" stroke-linejoin="round"></line>
                <line x1="146.5" y1="73" x2="146.5" y2="91" id="Stroke-133" stroke="#5C94D6" stroke-width="4" stroke-linecap="round" stroke-linejoin="round"></line>
                <line x1="155.5" y1="73" x2="155.5" y2="102" id="Stroke-135" stroke="#5C94D6" stroke-width="4" stroke-linecap="round" stroke-linejoin="round"></line>
                <path d="M88,99 C88,99 86.0645946,106 76,106" id="Stroke-137" stroke="#FFFFFF" stroke-width="5" stroke-linecap="round" stroke-linejoin="round"></path>
                <path d="M118,98 C118,98 119.935405,105 130,105" id="Stroke-139" stroke="#FFFFFF" stroke-width="5" stroke-linecap="round" stroke-linejoin="round"></path>
                <path d="M90.5722602,108 C90.5722602,108 87.3399499,112.330145 82,114.206783 C82,114.206783 85.6536499,118.392348 90.8533102,116.516194 C90.8533102,116.516194 95.8656038,113.099949 90.5722602,108" id="Fill-141" fill="#5B9DEC"></path>
                <path d="M116.42774,106 C116.42774,106 119.66005,110.330145 125,112.206783 C125,112.206783 121.34635,116.392348 116.14669,114.516194 C116.14669,114.516194 111.134396,111.099949 116.42774,106" id="Fill-143" fill="#5B9DEC"></path>
                <path d="M96,131.703442 C96,131.703442 98.0118719,122.905546 104.561387,123.004399 C104.561387,123.004399 109.146048,122.510135 112,132 L96,131.703442 Z" id="Fill-145" fill="#5B9DEC"></path>
            </g>
        </g>
    </g>
</svg>