<?xml version="1.0" encoding="UTF-8"?>
<svg width="44px" height="68px" viewBox="0 0 44 68" version="1.1" xmlns="http://www.w3.org/2000/svg" xmlns:xlink="http://www.w3.org/1999/xlink">
    <title>编组 2备份 6</title>
    <defs>
        <linearGradient x1="50%" y1="0%" x2="50%" y2="100%" id="linearGradient-1">
            <stop stop-color="#1FD7E4" offset="0%"></stop>
            <stop stop-color="#49E2EE" stop-opacity="0" offset="100%"></stop>
        </linearGradient>
        <circle id="path-2" cx="14" cy="14" r="14"></circle>
        <filter x="-42.9%" y="-42.9%" width="185.7%" height="185.7%" filterUnits="objectBoundingBox" id="filter-3">
            <feOffset dx="0" dy="0" in="SourceAlpha" result="shadowOffsetOuter1"></feOffset>
            <feGaussianBlur stdDeviation="4" in="shadowOffsetOuter1" result="shadowBlurOuter1"></feGaussianBlur>
            <feComposite in="shadowBlurOuter1" in2="SourceAlpha" operator="out" result="shadowBlurOuter1"></feComposite>
            <feColorMatrix values="0 0 0 0 0.257971489   0 0 0 0 0.920121596   0 0 0 0 1  0 0 0 1 0" type="matrix" in="shadowBlurOuter1"></feColorMatrix>
        </filter>
    </defs>
    <g id="主界面" stroke="none" stroke-width="1" fill="none" fill-rule="evenodd">
        <g id="主界面菜单效果与图例展开" transform="translate(-578.000000, -526.000000)">
            <g id="编组-2备份-6" transform="translate(586.000000, 534.500000)">
                <polygon id="矩形" fill="url(#linearGradient-1)" points="12 27 17 27 17 54.1058824 14.5 59 12 54.1058824"></polygon>
                <g id="椭圆形">
                    <use fill="black" fill-opacity="1" filter="url(#filter-3)" xlink:href="#path-2"></use>
                    <circle stroke="#2EE2F8" stroke-width="2" stroke-linejoin="square" fill="#041657" fill-rule="evenodd" cx="14" cy="14" r="13"></circle>
                </g>
                <g id="编组" transform="translate(5.000000, 5.000000)" fill="#2EE2F8" fill-rule="nonzero">
                    <path d="M10.4895838,14.0029159 C11.3375159,14.0029159 12.0237292,13.3859095 12.0237292,12.6260898 C12.0237292,11.8646883 11.3375159,11.2492636 10.4895838,11.2492636 C9.64212037,11.2492636 8.95461339,11.8647724 8.95461339,12.6260898 C8.95453839,13.3859095 9.64212037,14.0029159 10.4895838,14.0029159 L10.4895838,14.0029159 Z M16.9357094,15.2015915 C15.8132019,14.4545942 14.3517879,13.5797263 12.9829989,12.8455009 C12.9223801,12.8131925 12.8519925,12.810904 12.790005,12.8372219 C12.7288424,12.8620253 12.6857174,12.9131466 12.6744299,12.9747513 C12.5856298,13.4617669 12.296767,13.8811873 11.8838353,14.1779871 C11.8311477,14.2163533 11.8000602,14.2779412 11.8076352,14.3373416 C11.8114602,14.3982059 11.8520165,14.4545774 11.9127103,14.4854218 C14.5460381,15.7893521 17.6587477,17.1827363 18.5490549,17.2029964 C18.6477925,17.2000684 18.7788739,17.1887773 18.8734865,17.069253 C18.9044802,17.0159105 18.9141365,16.9685417 18.9141365,16.9295192 C18.8363052,16.4800116 18.0662231,15.9922725 16.9357094,15.2015915 L16.9357094,15.2015915 Z M9.70956419,10.7656976 C9.95569571,10.6815275 10.2169397,10.6303893 10.4883088,10.6303893 C10.7605028,10.6303893 11.0212968,10.6815275 11.2684221,10.7656976 C11.2918596,10.7738925 11.3169097,10.7776282 11.3416222,10.7776282 C11.3835472,10.7776282 11.4250223,10.7671616 11.4597473,10.743839 C11.5158849,10.7085017 11.5477224,10.6506662 11.5477224,10.5890447 C11.5225599,9.10095646 11.4186285,7.56376618 11.2662284,6.39440376 C11.191397,5.80743403 11.1021469,5.31518516 11.0000531,4.95891766 C10.8676967,4.61697018 10.8730779,4.35542353 10.48829,4.27991945 C10.1068209,4.35542353 10.1098209,4.61695336 9.97665823,4.95891766 C9.67937666,6.02317679 9.46963894,8.35167064 9.43062015,10.5890615 C9.43062015,10.6506831 9.46208268,10.7086026 9.51942024,10.7438558 C9.57475155,10.7799504 9.64504538,10.7867318 9.70956419,10.7656976 Z M9.10870105,14.2899391 C9.11627606,14.2290748 9.08736353,14.1682104 9.03587598,14.1299284 C8.6356193,13.8239576 8.36087526,13.395602 8.28640018,12.9055743 C8.27757155,12.843969 8.23428416,12.7906817 8.17163131,12.7642924 C8.10919374,12.73646 8.03424991,12.7387653 7.9782061,12.7718142 C6.59728588,13.5098089 5.15355309,14.356104 4.05063942,15.0730983 C2.94183823,15.8307304 2.19442494,16.2876252 2.1144936,16.7370822 C2.11192485,16.7723354 2.12287486,16.8294472 2.15840615,16.8768161 L2.1588749,16.8760757 C2.2568625,17.0060665 2.39415015,17.011384 2.49761276,17.0128479 C3.39403247,16.9948427 6.38713566,15.7277305 9.00323219,14.43425 C9.06176975,14.4034056 9.1011448,14.3493226 9.10870105,14.2899391 Z" id="形状" transform="translate(10.514137, 10.741458) rotate(-240.000000) translate(-10.514137, -10.741458) "></path>
                </g>
            </g>
        </g>
    </g>
</svg>