<?xml version="1.0" encoding="UTF-8"?>
<svg width="51px" height="45px" viewBox="0 0 51 45" version="1.1" xmlns="http://www.w3.org/2000/svg" xmlns:xlink="http://www.w3.org/1999/xlink">
    <title>编组 20</title>
    <defs>
        <linearGradient x1="104.05034%" y1="100%" x2="30.8776111%" y2="100%" id="linearGradient-1">
            <stop stop-color="#3049FE" stop-opacity="0.140004405" offset="0%"></stop>
            <stop stop-color="#3049FE" stop-opacity="0.49773359" offset="100%"></stop>
        </linearGradient>
        <polygon id="path-2" points="10.8891223 13.2236182 29.5651808 5.21634381 25.5123659 25.7932212 6.43481924 30.9414918"></polygon>
        <filter x="-2.2%" y="-1.9%" width="108.6%" height="107.8%" filterUnits="objectBoundingBox" id="filter-3">
            <feOffset dx="1" dy="1" in="SourceAlpha" result="shadowOffsetOuter1"></feOffset>
            <feColorMatrix values="0 0 0 0 0   0 0 0 0 0   0 0 0 0 0  0 0 0 0.660653068 0" type="matrix" in="shadowOffsetOuter1"></feColorMatrix>
        </filter>
    </defs>
    <g id="主界面" stroke="none" stroke-width="1" fill="none" fill-rule="evenodd">
        <g id="主界面菜单效果与图例展开" transform="translate(-1365.000000, -119.000000)">
            <g id="编组-20" transform="translate(1365.000000, 119.000000)">
                <path d="M49,0.5 C49.4142136,0.5 49.7892136,0.667893219 50.0606602,0.939339828 C50.3321068,1.21078644 50.5,1.58578644 50.5,2 L50.5,2 L50.5,41 C50.5,41.4142136 50.3321068,41.7892136 50.0606602,42.0606602 C49.7892136,42.3321068 49.4142136,42.5 49,42.5 L49,42.5 L2,42.5 C1.58578644,42.5 1.21078644,42.3321068 0.939339828,42.0606602 C0.667893219,41.7892136 0.5,41.4142136 0.5,41 L0.5,41 L0.5,2 C0.5,1.58578644 0.667893219,1.21078644 0.939339828,0.939339828 C1.21078644,0.667893219 1.58578644,0.5 2,0.5 L2,0.5 Z" id="矩形备份-22" stroke-opacity="0.259249174" stroke="#C0C8FF" fill="url(#linearGradient-1)"></path>
                <g id="编组-18" transform="translate(8.000000, 6.000000)">
                    <g id="编组-14备份-4">
                        <ellipse id="椭圆形" fill="#30FBFE" cx="7.07142857" cy="1.875" rx="1.92857143" ry="1.875"></ellipse>
                        <ellipse id="椭圆形备份-5" fill="#3049FE" cx="1.92857143" cy="8.75" rx="1.92857143" ry="1"></ellipse>
                    </g>
                    <circle id="椭圆形备份-10" fill="#2ABAC4" cx="34.5" cy="27.5" r="1.5"></circle>
                    <g id="编组-17备份" transform="translate(1.000000, 2.000000)">
                        <g id="矩形" opacity="0.699999988" transform="translate(18.000000, 18.078918) rotate(49.000000) translate(-18.000000, -18.078918) ">
                            <use fill="black" fill-opacity="1" filter="url(#filter-3)" xlink:href="#path-2"></use>
                            <use fill="#3049FE" fill-rule="evenodd" xlink:href="#path-2"></use>
                        </g>
                        <g id="编组" transform="translate(6.651564, 2.250000)" fill="#9BAEEC" fill-rule="nonzero">
                            <path d="M21.0694981,15.9067518 C21.2783945,15.9067518 21.478735,15.9852597 21.626447,16.1250048 C21.7741591,16.2647499 21.8571429,16.454285 21.8571429,16.6519144 L21.8571429,16.7548374 C21.8571429,16.9524668 21.7741591,17.1420018 21.626447,17.2817469 C21.478735,17.421492 21.2783945,17.5 21.0694981,17.5 L0.787644789,17.5 C0.578748403,17.5 0.378407869,17.421492 0.230695817,17.2817469 C0.0829837663,17.1420018 0,16.9524668 0,16.7548374 L0,16.6519144 C0,16.2403724 0.352640584,15.9067518 0.787644789,15.9067518 L21.0694981,15.9067518 Z M5.9377973,4.77151092 C6.3728015,4.77151092 6.72544209,5.10513158 6.72544209,5.51667352 L6.72544209,14.3680527 C6.72544209,14.7795946 6.37280151,15.1132153 5.9377973,15.1132153 L2.46954927,15.1132153 C2.03454507,15.1132153 1.68190448,14.7795946 1.68190448,14.3680527 L1.68190448,5.51667352 C1.68190448,5.10513158 2.03454507,4.77151092 2.46954927,4.77151092 L5.9377973,4.77151092 Z M19.3875936,7.15726636 C19.8225978,7.15726636 20.1752384,7.49088703 20.1752384,7.90242898 L20.1752384,14.364965 C20.1752384,14.5625944 20.0922546,14.7521294 19.9445426,14.8918745 C19.7968305,15.0316196 19.59649,15.1101276 19.3875936,15.1101276 L15.9193456,15.1101276 C15.7104492,15.1101276 15.5101086,15.0316196 15.3623966,14.8918745 C15.2146845,14.7521294 15.1317008,14.5625944 15.1317008,14.364965 L15.1317008,7.90242898 C15.1317008,7.70479956 15.2146845,7.51526454 15.3623966,7.37551944 C15.5101086,7.23577434 15.7104492,7.15726636 15.9193456,7.15726636 L19.3875936,7.15726636 Z M12.667591,0 C12.8764874,0 13.076828,0.0785079791 13.22454,0.218253078 C13.3722521,0.357998177 13.4552358,0.547533205 13.4552358,0.745162619 L13.4552358,14.364965 C13.4552358,14.776507 13.1025952,15.1101276 12.667591,15.1101276 L9.19499136,15.1101276 C8.98609498,15.1101276 8.78575444,15.0316196 8.63804239,14.8918745 C8.49033034,14.7521294 8.40734657,14.5625944 8.40734657,14.364965 L8.40734657,0.745162619 C8.40734657,0.547533205 8.49033034,0.357998177 8.63804239,0.218253078 C8.78575444,0.0785079791 8.98609498,0 9.19499136,0 L12.667591,0 Z" id="形状"></path>
                        </g>
                    </g>
                </g>
            </g>
        </g>
    </g>
</svg>