<?xml version="1.0" encoding="UTF-8"?>
<svg width="51px" height="44px" viewBox="0 0 51 44" version="1.1" xmlns="http://www.w3.org/2000/svg" xmlns:xlink="http://www.w3.org/1999/xlink">
    <title>编组 26</title>
    <defs>
        <linearGradient x1="104.05034%" y1="100%" x2="30.8776111%" y2="100%" id="linearGradient-1">
            <stop stop-color="#3049FE" stop-opacity="0.140004405" offset="0%"></stop>
            <stop stop-color="#3049FE" stop-opacity="0.49773359" offset="100%"></stop>
        </linearGradient>
    </defs>
    <g id="主界面" stroke="none" stroke-width="1" fill="none" fill-rule="evenodd">
        <g id="主界面菜单效果与图例展开" transform="translate(-1293.000000, -119.000000)">
            <g id="编组-26" transform="translate(1293.000000, 119.000000)">
                <path d="M49,0.5 C49.4142136,0.5 49.7892136,0.667893219 50.0606602,0.939339828 C50.3321068,1.21078644 50.5,1.58578644 50.5,2 L50.5,2 L50.5,41 C50.5,41.4142136 50.3321068,41.7892136 50.0606602,42.0606602 C49.7892136,42.3321068 49.4142136,42.5 49,42.5 L49,42.5 L2,42.5 C1.58578644,42.5 1.21078644,42.3321068 0.939339828,42.0606602 C0.667893219,41.7892136 0.5,41.4142136 0.5,41 L0.5,41 L0.5,2 C0.5,1.58578644 0.667893219,1.21078644 0.939339828,0.939339828 C1.21078644,0.667893219 1.58578644,0.5 2,0.5 L2,0.5 Z" id="矩形备份-24" stroke-opacity="0.259249174" stroke="#C0C8FF" fill="url(#linearGradient-1)"></path>
                <text id="数据-管理" font-family="PingFangSC-Regular, PingFang SC" font-size="14" font-weight="normal" line-spacing="15" fill="#BCCCFF">
                    <tspan x="11" y="21">数据</tspan>
                    <tspan x="11" y="36">管理</tspan>
                </text>
                <line x1="16.5" y1="43.5" x2="27.5" y2="43.5" id="直线-3" stroke-opacity="0" stroke="#979797" stroke-linecap="square"></line>
            </g>
        </g>
    </g>
</svg>