<?xml version="1.0" encoding="UTF-8"?>
<svg width="51px" height="45px" viewBox="0 0 51 45" version="1.1" xmlns="http://www.w3.org/2000/svg" xmlns:xlink="http://www.w3.org/1999/xlink">
    <title>编组 21</title>
    <defs>
        <linearGradient x1="104.05034%" y1="100%" x2="30.8776111%" y2="100%" id="linearGradient-1">
            <stop stop-color="#3049FE" stop-opacity="0.140004405" offset="0%"></stop>
            <stop stop-color="#3049FE" stop-opacity="0.49773359" offset="100%"></stop>
        </linearGradient>
        <polygon id="path-2" points="19.8891223 21.2236182 38.5651808 13.2163438 34.5123659 33.7932212 15.4348192 38.9414918"></polygon>
        <filter x="-2.2%" y="-1.9%" width="108.6%" height="107.8%" filterUnits="objectBoundingBox" id="filter-3">
            <feOffset dx="1" dy="1" in="SourceAlpha" result="shadowOffsetOuter1"></feOffset>
            <feColorMatrix values="0 0 0 0 0   0 0 0 0 0   0 0 0 0 0  0 0 0 0.660653068 0" type="matrix" in="shadowOffsetOuter1"></feColorMatrix>
        </filter>
    </defs>
    <g id="主界面" stroke="none" stroke-width="1" fill="none" fill-rule="evenodd">
        <g id="主界面菜单效果与图例展开" transform="translate(-1365.000000, -169.000000)">
            <g id="编组-21" transform="translate(1365.000000, 169.000000)">
                <path d="M49,0.5 C49.4142136,0.5 49.7892136,0.667893219 50.0606602,0.939339828 C50.3321068,1.21078644 50.5,1.58578644 50.5,2 L50.5,2 L50.5,41 C50.5,41.4142136 50.3321068,41.7892136 50.0606602,42.0606602 C49.7892136,42.3321068 49.4142136,42.5 49,42.5 L49,42.5 L2,42.5 C1.58578644,42.5 1.21078644,42.3321068 0.939339828,42.0606602 C0.667893219,41.7892136 0.5,41.4142136 0.5,41 L0.5,41 L0.5,2 C0.5,1.58578644 0.667893219,1.21078644 0.939339828,0.939339828 C1.21078644,0.667893219 1.58578644,0.5 2,0.5 L2,0.5 Z" id="矩形备份-23" stroke-opacity="0.259249174" stroke="#C0C8FF" fill="url(#linearGradient-1)"></path>
                <g id="编组-14备份-4" transform="translate(8.000000, 6.000000)">
                    <ellipse id="椭圆形" fill="#30FBFE" cx="7.07142857" cy="1.875" rx="1.92857143" ry="1.875"></ellipse>
                    <ellipse id="椭圆形备份-5" fill="#3049FE" cx="1.92857143" cy="8.75" rx="1.92857143" ry="1"></ellipse>
                </g>
                <circle id="椭圆形备份-10" fill="#2ABAC4" cx="42.5" cy="33.5" r="1.5"></circle>
                <g id="矩形" opacity="0.699999988" transform="translate(27.000000, 26.078918) rotate(49.000000) translate(-27.000000, -26.078918) ">
                    <use fill="black" fill-opacity="1" filter="url(#filter-3)" xlink:href="#path-2"></use>
                    <use fill="#3049FE" fill-rule="evenodd" xlink:href="#path-2"></use>
                </g>
                <g id="编组" transform="translate(18.000000, 11.000000)" fill="#9BAEEC" fill-rule="nonzero">
                    <path d="M12.7058613,3.09093023 L12.7058613,1.03031008 C12.7224241,0.5398302 12.1237235,0 11.6470335,0 L5.82352871,0 C5.33548612,0 4.76470096,0.519410981 4.76470096,1.03031008 L4.76470096,3.09093023 L1.58824162,3.09093023 C0.797215889,3.09093023 2.39002245e-05,3.91218751 2.39002245e-05,4.63634884 L2.39002245e-05,7.21210077 L18,7.21210077 L18,4.63634884 C18,3.86939552 17.1979085,3.09093023 16.4118062,3.09093023 L12.7058613,3.09093023 Z M11.1176196,3.09093023 L6.35294258,3.09093023 L6.35294258,2.0605969 C6.35294258,1.74791307 6.56233245,1.54546512 6.88233256,1.54546512 L10.5881819,1.54546512 C10.9079669,1.54546512 11.1175718,1.74793633 11.1175718,2.0605969 L11.1175718,3.09090698 L11.1176196,3.09093023 Z M8.97931436,10.2844025 C10.022129,10.2844025 10.0588158,9.03729524 10.0588158,8.24241085 L7.41177033,8.24241085 C7.4295999,8.88208127 7.43244402,10.3030078 8.47059808,10.3030078 C8.47059808,10.3030078 8.76112921,10.2844025 8.97931436,10.2844025 Z M11.1176196,8.24241085 C11.1176196,8.24241085 11.9567326,11.3333178 8.73500626,11.3333178 C5.40862081,11.3333178 6.35294258,8.24241085 6.35294258,8.24241085 L0,8.24241085 L0,15.4545349 C0,16.2458843 0.713971407,17 1.58821772,17 L16.4117584,17 C17.2069188,17 17.9999522,16.3333985 17.9999522,15.4545349 L17.9999522,8.24241085 L11.1176196,8.24241085 Z" id="形状"></path>
                </g>
            </g>
        </g>
    </g>
</svg>