<?xml version="1.0" encoding="UTF-8"?>
<svg width="51px" height="46px" viewBox="0 0 51 46" version="1.1" xmlns="http://www.w3.org/2000/svg" xmlns:xlink="http://www.w3.org/1999/xlink">
    <title>编组 22</title>
    <defs>
        <linearGradient x1="104.05034%" y1="100%" x2="30.8776111%" y2="100%" id="linearGradient-1">
            <stop stop-color="#3049FE" stop-opacity="0.140004405" offset="0%"></stop>
            <stop stop-color="#3049FE" stop-opacity="0.49773359" offset="100%"></stop>
        </linearGradient>
        <polygon id="path-2" points="17.0392516 20.5706799 36.4779985 12.2216515 33.1037113 34.5436277 12.4779985 39.2216515"></polygon>
        <filter x="-2.1%" y="-1.9%" width="108.3%" height="107.4%" filterUnits="objectBoundingBox" id="filter-3">
            <feOffset dx="1" dy="1" in="SourceAlpha" result="shadowOffsetOuter1"></feOffset>
            <feColorMatrix values="0 0 0 0 0   0 0 0 0 0   0 0 0 0 0  0 0 0 0.660653068 0" type="matrix" in="shadowOffsetOuter1"></feColorMatrix>
        </filter>
    </defs>
    <g id="主界面" stroke="none" stroke-width="1" fill="none" fill-rule="evenodd">
        <g id="主界面菜单效果与图例展开" transform="translate(-1220.000000, -69.000000)">
            <g id="编组-22" transform="translate(1220.000000, 69.000000)">
                <path d="M49,0.5 C49.4142136,0.5 49.7892136,0.667893219 50.0606602,0.939339828 C50.3321068,1.21078644 50.5,1.58578644 50.5,2 L50.5,2 L50.5,41 C50.5,41.4142136 50.3321068,41.7892136 50.0606602,42.0606602 C49.7892136,42.3321068 49.4142136,42.5 49,42.5 L49,42.5 L2,42.5 C1.58578644,42.5 1.21078644,42.3321068 0.939339828,42.0606602 C0.667893219,41.7892136 0.5,41.4142136 0.5,41 L0.5,41 L0.5,2 C0.5,1.58578644 0.667893219,1.21078644 0.939339828,0.939339828 C1.21078644,0.667893219 1.58578644,0.5 2,0.5 L2,0.5 Z" id="矩形备份-27" stroke-opacity="0.259249174" stroke="#C0C8FF" fill="url(#linearGradient-1)"></path>
                <g id="编组-14" transform="translate(4.000000, 5.000000)">
                    <ellipse id="椭圆形" fill="#30FBFE" cx="7.85714286" cy="2.0625" rx="2.14285714" ry="2.0625"></ellipse>
                    <ellipse id="椭圆形备份-5" fill="#3049FE" cx="2.14285714" cy="9.625" rx="2.14285714" ry="1.03125"></ellipse>
                </g>
                <circle id="椭圆形备份-6" fill="#2ABAC4" cx="41.5" cy="35.5" r="1.5"></circle>
                <g id="矩形" opacity="0.699999988" transform="translate(24.477999, 25.721652) rotate(49.000000) translate(-24.477999, -25.721652) ">
                    <use fill="black" fill-opacity="1" filter="url(#filter-3)" xlink:href="#path-2"></use>
                    <use fill="#3049FE" fill-rule="evenodd" xlink:href="#path-2"></use>
                </g>
                <g id="编组" transform="translate(12.205861, 5.000000)" fill="#9BAEEC" fill-rule="nonzero">
                    <path d="M14.5257621,9.95067744 L14.5257621,8.65276398 C14.5257621,3.89374039 13.3431156,0 12.0126413,0 C10.682167,0.288420172 9.49952062,4.18216056 9.49952062,8.94120684 L9.49952062,10.2390976 C10.2386601,9.66225727 11.1256507,9.22960433 12.0126413,9.22960433 C12.899632,9.22960433 13.7865993,9.37381441 14.5257621,9.95065476 L14.5257621,9.95067744 Z M18.2215292,15.5749616 C17.9258734,15.2865414 17.4823897,14.9981212 17.1867107,14.8539111 C17.0388828,15.7191943 16.743227,16.4402448 16.29972,17.1613179 C15.7084085,17.8823683 14.9692457,18.3150213 14.0822784,18.4592313 C14.3779342,18.7476515 14.6735899,19.0360717 15.1170969,19.3244919 C18.9606919,22.3529717 22.8042869,23.9393054 23.5434264,22.9298121 C24.2825659,21.9203188 21.9172963,18.6034414 18.2215292,15.5749616 Z M7.42990685,17.1613179 C6.83857201,16.4402674 6.54291623,15.5749616 6.54291623,14.709701 C6.24726044,14.9981212 5.80377676,15.1423313 5.50809771,15.4307515 C1.66450269,18.4592313 -0.700790131,21.7761314 0.186200491,22.785602 C1.07319111,23.7950726 4.76895824,22.2087616 8.61253,19.1802818 C8.90820905,18.8918616 9.20386484,18.6034414 9.64734852,18.3150213 C8.76038115,18.3150213 8.02121842,17.8823683 7.42990685,17.1612952 L7.42990685,17.1613179 Z M12.0126646,11.969664 C10.8299949,11.969664 9.94302756,12.8349245 9.94302756,13.9886279 C9.94302756,15.142354 10.8299949,16.0076145 12.0126413,16.0076145 C13.1952877,16.0076145 14.0822784,15.1423313 14.0822784,13.9886279 C14.0822784,12.9791346 13.1952877,11.969664 12.0126413,11.969664 L12.0126646,11.969664 Z" id="形状"></path>
                </g>
            </g>
        </g>
    </g>
</svg>